Source: Syrup.2013.720p.WEB-DL.H264-CtrlHD

Format: AVI
Format/Info: Audio Video Interleave
Format profile: OpenDML
File size: 2.43 GiB
Duration: 1h 29mn
Overall bit rate: 3 859 Kbps
Writing application: Lavf51.12.1

Video
ID: 0
Format: AVC
Format/Info: Advanced Video Codec
Format profile: Baseline@L3.1
Format settings, CABAC: No
Format settings, ReFrames: 1 frame
Format settings, GOP: M=1, N=12
Codec ID: H264
Duration: 1h 29mn
Bit rate: 3 465 Kbps
Width: 1 280 pixels
Height: 540 pixels
Display aspect ratio: 2.40:1
Frame rate mode: Variable
Frame rate: 23.976 fps
Color space: YUV
Chroma subsampling: 4:2:0
Bit depth: 8 bits
Scan type: Progressive
Bits/(Pixel*Frame): 0.209
Stream size: 2.18 GiB (90%)

Audio
ID: 1
Format: AC-3
Format/Info: Audio Coding 3
Mode extension: CM (complete main)
Format settings, Endianness: Big
Codec ID: 2000
Duration: 1h 29mn
Bit rate mode: Constant
Bit rate: 384 Kbps
Channel(s): 6 channels
Channel positions: Front: L C R, Side: L R, LFE
Sampling rate: 48.0 KHz
Bit depth: 16 bits
Compression mode: Lossy
Stream size: 247 MiB (10%)
Alignment: Aligned on interleaves
Interleave, duration: 32 ms (0.77 video frame)
Interleave, preload duration: 32 ms

Screens:
 
http://i.imgur.com/5JFY8ZX.jpg 
http://i.imgur.com/dKIt08f.jpg 
http://i.imgur.com/nlizi7D.jpg